<mxfile host="app.diagrams.net" agent="Mozilla/5.0 (Windows NT 10.0; Win64; x64) AppleWebKit/537.36 (KHTML, like Gecko) Chrome/131.0.0.0 Safari/537.36" version="25.0.3">
  <diagram name="Page-1" id="IiXypLGl0gGC1Jl7eM3L">
    <mxGraphModel dx="2261" dy="746" grid="1" gridSize="10" guides="1" tooltips="1" connect="1" arrows="1" fold="1" page="1" pageScale="1" pageWidth="827" pageHeight="1169" math="0" shadow="0">
      <root>
        <mxCell id="0" />
        <mxCell id="1" parent="0" />
        <mxCell id="N9gOAcbP-C_hygWr5ws--16" style="rounded=0;orthogonalLoop=1;jettySize=auto;html=1;exitX=0.567;exitY=0.283;exitDx=0;exitDy=0;exitPerimeter=0;entryX=0;entryY=0.5;entryDx=0;entryDy=0;" edge="1" parent="1" source="N9gOAcbP-C_hygWr5ws--71" target="N9gOAcbP-C_hygWr5ws--6">
          <mxGeometry relative="1" as="geometry">
            <mxPoint x="-25" y="210" as="sourcePoint" />
          </mxGeometry>
        </mxCell>
        <mxCell id="N9gOAcbP-C_hygWr5ws--19" value="" style="rounded=0;orthogonalLoop=1;jettySize=auto;html=1;entryX=0;entryY=0.5;entryDx=0;entryDy=0;exitX=0.5;exitY=0.5;exitDx=0;exitDy=0;exitPerimeter=0;" edge="1" parent="1" source="N9gOAcbP-C_hygWr5ws--71" target="N9gOAcbP-C_hygWr5ws--12">
          <mxGeometry relative="1" as="geometry">
            <mxPoint x="-10" y="218.68421052631584" as="sourcePoint" />
            <mxPoint x="95" y="290" as="targetPoint" />
          </mxGeometry>
        </mxCell>
        <mxCell id="N9gOAcbP-C_hygWr5ws--50" style="rounded=0;orthogonalLoop=1;jettySize=auto;html=1;entryX=0;entryY=0.5;entryDx=0;entryDy=0;" edge="1" parent="1" source="N9gOAcbP-C_hygWr5ws--6" target="N9gOAcbP-C_hygWr5ws--8">
          <mxGeometry relative="1" as="geometry" />
        </mxCell>
        <mxCell id="N9gOAcbP-C_hygWr5ws--54" value="&amp;lt;&amp;lt;includes&amp;gt;&amp;gt;" style="edgeLabel;html=1;align=center;verticalAlign=middle;resizable=0;points=[];" vertex="1" connectable="0" parent="N9gOAcbP-C_hygWr5ws--50">
          <mxGeometry x="0.0339" y="-1" relative="1" as="geometry">
            <mxPoint as="offset" />
          </mxGeometry>
        </mxCell>
        <mxCell id="N9gOAcbP-C_hygWr5ws--6" value="Sign in" style="ellipse;whiteSpace=wrap;html=1;fillColor=#E0D9FF;" vertex="1" parent="1">
          <mxGeometry x="70" y="160" width="90" height="45" as="geometry" />
        </mxCell>
        <mxCell id="N9gOAcbP-C_hygWr5ws--9" style="edgeStyle=orthogonalEdgeStyle;rounded=0;orthogonalLoop=1;jettySize=auto;html=1;entryX=0;entryY=0.5;entryDx=0;entryDy=0;" edge="1" parent="1" source="N9gOAcbP-C_hygWr5ws--8" target="N9gOAcbP-C_hygWr5ws--10">
          <mxGeometry relative="1" as="geometry">
            <mxPoint x="530" y="182.5" as="targetPoint" />
          </mxGeometry>
        </mxCell>
        <mxCell id="N9gOAcbP-C_hygWr5ws--55" value="&amp;lt;&amp;lt;includes&amp;gt;&amp;gt;" style="edgeLabel;html=1;align=center;verticalAlign=middle;resizable=0;points=[];" vertex="1" connectable="0" parent="N9gOAcbP-C_hygWr5ws--9">
          <mxGeometry x="-0.2812" y="-1" relative="1" as="geometry">
            <mxPoint y="1" as="offset" />
          </mxGeometry>
        </mxCell>
        <mxCell id="N9gOAcbP-C_hygWr5ws--8" value="verify/update customer profile&amp;nbsp;" style="ellipse;whiteSpace=wrap;html=1;fillColor=#E0D9FF;" vertex="1" parent="1">
          <mxGeometry x="250" y="155" width="120" height="60" as="geometry" />
        </mxCell>
        <mxCell id="N9gOAcbP-C_hygWr5ws--10" value="Receive targeted promotions&amp;nbsp;" style="ellipse;whiteSpace=wrap;html=1;fillColor=#E0D9FF;" vertex="1" parent="1">
          <mxGeometry x="460" y="160" width="120" height="65" as="geometry" />
        </mxCell>
        <mxCell id="N9gOAcbP-C_hygWr5ws--20" style="rounded=0;orthogonalLoop=1;jettySize=auto;html=1;entryX=0.588;entryY=0.083;entryDx=0;entryDy=0;entryPerimeter=0;" edge="1" parent="1" source="N9gOAcbP-C_hygWr5ws--12" target="N9gOAcbP-C_hygWr5ws--22">
          <mxGeometry relative="1" as="geometry">
            <mxPoint x="235" y="370" as="targetPoint" />
          </mxGeometry>
        </mxCell>
        <mxCell id="N9gOAcbP-C_hygWr5ws--49" style="rounded=0;orthogonalLoop=1;jettySize=auto;html=1;entryX=0;entryY=0.5;entryDx=0;entryDy=0;" edge="1" parent="1" source="N9gOAcbP-C_hygWr5ws--12" target="N9gOAcbP-C_hygWr5ws--24">
          <mxGeometry relative="1" as="geometry" />
        </mxCell>
        <mxCell id="N9gOAcbP-C_hygWr5ws--12" value="Browse events or shows by date&amp;nbsp;" style="ellipse;whiteSpace=wrap;html=1;fillColor=#D5E8D4;" vertex="1" parent="1">
          <mxGeometry x="70" y="230" width="190" height="70" as="geometry" />
        </mxCell>
        <mxCell id="N9gOAcbP-C_hygWr5ws--31" style="rounded=0;orthogonalLoop=1;jettySize=auto;html=1;entryX=0.5;entryY=0;entryDx=0;entryDy=0;" edge="1" parent="1" source="N9gOAcbP-C_hygWr5ws--22" target="N9gOAcbP-C_hygWr5ws--30">
          <mxGeometry relative="1" as="geometry" />
        </mxCell>
        <mxCell id="N9gOAcbP-C_hygWr5ws--22" value="select seat interactively&amp;nbsp;" style="ellipse;whiteSpace=wrap;html=1;fillColor=#D5E8D4;" vertex="1" parent="1">
          <mxGeometry x="60" y="335" width="170" height="60" as="geometry" />
        </mxCell>
        <mxCell id="N9gOAcbP-C_hygWr5ws--48" style="rounded=0;orthogonalLoop=1;jettySize=auto;html=1;" edge="1" parent="1" source="N9gOAcbP-C_hygWr5ws--24" target="N9gOAcbP-C_hygWr5ws--30">
          <mxGeometry relative="1" as="geometry">
            <mxPoint x="370" y="470" as="targetPoint" />
          </mxGeometry>
        </mxCell>
        <mxCell id="N9gOAcbP-C_hygWr5ws--53" style="rounded=0;orthogonalLoop=1;jettySize=auto;html=1;exitX=0.5;exitY=1;exitDx=0;exitDy=0;entryX=0.5;entryY=0;entryDx=0;entryDy=0;" edge="1" parent="1" source="N9gOAcbP-C_hygWr5ws--24" target="N9gOAcbP-C_hygWr5ws--44">
          <mxGeometry relative="1" as="geometry" />
        </mxCell>
        <mxCell id="N9gOAcbP-C_hygWr5ws--24" value="select best seats automatically&amp;nbsp;" style="ellipse;whiteSpace=wrap;html=1;fillColor=#CAE8E3;" vertex="1" parent="1">
          <mxGeometry x="280" y="300" width="180" height="70" as="geometry" />
        </mxCell>
        <mxCell id="N9gOAcbP-C_hygWr5ws--35" style="rounded=0;orthogonalLoop=1;jettySize=auto;html=1;exitX=0.5;exitY=1;exitDx=0;exitDy=0;entryX=0.5;entryY=0;entryDx=0;entryDy=0;" edge="1" parent="1" source="N9gOAcbP-C_hygWr5ws--30" target="N9gOAcbP-C_hygWr5ws--32">
          <mxGeometry relative="1" as="geometry">
            <mxPoint x="190" y="600" as="targetPoint" />
          </mxGeometry>
        </mxCell>
        <mxCell id="N9gOAcbP-C_hygWr5ws--45" value="" style="rounded=0;orthogonalLoop=1;jettySize=auto;html=1;" edge="1" parent="1" source="N9gOAcbP-C_hygWr5ws--30" target="N9gOAcbP-C_hygWr5ws--44">
          <mxGeometry relative="1" as="geometry" />
        </mxCell>
        <mxCell id="N9gOAcbP-C_hygWr5ws--56" value="&amp;lt;&amp;lt;includes&amp;gt;&amp;gt;" style="edgeLabel;html=1;align=center;verticalAlign=middle;resizable=0;points=[];" vertex="1" connectable="0" parent="N9gOAcbP-C_hygWr5ws--45">
          <mxGeometry x="-0.147" y="-2" relative="1" as="geometry">
            <mxPoint as="offset" />
          </mxGeometry>
        </mxCell>
        <mxCell id="N9gOAcbP-C_hygWr5ws--30" value="hold selected seats&amp;nbsp;" style="ellipse;whiteSpace=wrap;html=1;fillColor=#D5E8D4;" vertex="1" parent="1">
          <mxGeometry x="70" y="430" width="160" height="60" as="geometry" />
        </mxCell>
        <mxCell id="N9gOAcbP-C_hygWr5ws--34" value="" style="edgeStyle=orthogonalEdgeStyle;rounded=0;orthogonalLoop=1;jettySize=auto;html=1;" edge="1" parent="1" source="N9gOAcbP-C_hygWr5ws--32" target="N9gOAcbP-C_hygWr5ws--33">
          <mxGeometry relative="1" as="geometry" />
        </mxCell>
        <mxCell id="N9gOAcbP-C_hygWr5ws--59" value="&amp;lt;&amp;lt;includes&amp;gt;&amp;gt;" style="edgeLabel;html=1;align=center;verticalAlign=middle;resizable=0;points=[];" vertex="1" connectable="0" parent="N9gOAcbP-C_hygWr5ws--34">
          <mxGeometry x="-0.125" y="-2" relative="1" as="geometry">
            <mxPoint as="offset" />
          </mxGeometry>
        </mxCell>
        <mxCell id="N9gOAcbP-C_hygWr5ws--41" value="" style="edgeStyle=orthogonalEdgeStyle;rounded=0;orthogonalLoop=1;jettySize=auto;html=1;" edge="1" parent="1" source="N9gOAcbP-C_hygWr5ws--32" target="N9gOAcbP-C_hygWr5ws--40">
          <mxGeometry relative="1" as="geometry" />
        </mxCell>
        <mxCell id="N9gOAcbP-C_hygWr5ws--58" value="&amp;gt;&amp;gt;extend&amp;lt;&amp;lt;" style="edgeLabel;html=1;align=center;verticalAlign=middle;resizable=0;points=[];" vertex="1" connectable="0" parent="N9gOAcbP-C_hygWr5ws--41">
          <mxGeometry x="0.08" y="2" relative="1" as="geometry">
            <mxPoint as="offset" />
          </mxGeometry>
        </mxCell>
        <mxCell id="N9gOAcbP-C_hygWr5ws--43" value="" style="rounded=0;orthogonalLoop=1;jettySize=auto;html=1;" edge="1" parent="1" source="N9gOAcbP-C_hygWr5ws--32" target="N9gOAcbP-C_hygWr5ws--42">
          <mxGeometry relative="1" as="geometry" />
        </mxCell>
        <mxCell id="N9gOAcbP-C_hygWr5ws--57" value="&amp;gt;&amp;gt;extend&amp;lt;&amp;lt;" style="edgeLabel;html=1;align=center;verticalAlign=middle;resizable=0;points=[];" vertex="1" connectable="0" parent="N9gOAcbP-C_hygWr5ws--43">
          <mxGeometry x="-0.2309" y="-3" relative="1" as="geometry">
            <mxPoint as="offset" />
          </mxGeometry>
        </mxCell>
        <mxCell id="N9gOAcbP-C_hygWr5ws--32" value="purchase ticket&amp;nbsp;" style="ellipse;whiteSpace=wrap;html=1;fillColor=#D5E8D4;" vertex="1" parent="1">
          <mxGeometry x="110" y="520" width="140" height="70" as="geometry" />
        </mxCell>
        <mxCell id="N9gOAcbP-C_hygWr5ws--37" value="" style="edgeStyle=orthogonalEdgeStyle;rounded=0;orthogonalLoop=1;jettySize=auto;html=1;" edge="1" parent="1" source="N9gOAcbP-C_hygWr5ws--33" target="N9gOAcbP-C_hygWr5ws--36">
          <mxGeometry relative="1" as="geometry" />
        </mxCell>
        <mxCell id="N9gOAcbP-C_hygWr5ws--60" value="&amp;lt;&amp;lt;includes&amp;gt;&amp;gt;" style="edgeLabel;html=1;align=center;verticalAlign=middle;resizable=0;points=[];" vertex="1" connectable="0" parent="N9gOAcbP-C_hygWr5ws--37">
          <mxGeometry x="-0.0667" y="-2" relative="1" as="geometry">
            <mxPoint as="offset" />
          </mxGeometry>
        </mxCell>
        <mxCell id="N9gOAcbP-C_hygWr5ws--33" value="validate payment (Credit card only)" style="ellipse;whiteSpace=wrap;html=1;fillColor=#D5E8D4;" vertex="1" parent="1">
          <mxGeometry x="65" y="630" width="230" height="50" as="geometry" />
        </mxCell>
        <mxCell id="N9gOAcbP-C_hygWr5ws--39" value="" style="edgeStyle=orthogonalEdgeStyle;rounded=0;orthogonalLoop=1;jettySize=auto;html=1;" edge="1" parent="1" source="N9gOAcbP-C_hygWr5ws--36" target="N9gOAcbP-C_hygWr5ws--38">
          <mxGeometry relative="1" as="geometry" />
        </mxCell>
        <mxCell id="N9gOAcbP-C_hygWr5ws--61" value="&amp;lt;&amp;lt;includes&amp;gt;&amp;gt;" style="edgeLabel;html=1;align=center;verticalAlign=middle;resizable=0;points=[];" vertex="1" connectable="0" parent="N9gOAcbP-C_hygWr5ws--39">
          <mxGeometry x="-0.1333" y="1" relative="1" as="geometry">
            <mxPoint as="offset" />
          </mxGeometry>
        </mxCell>
        <mxCell id="N9gOAcbP-C_hygWr5ws--36" value="Generate Tickets and Track details&amp;nbsp;" style="ellipse;whiteSpace=wrap;html=1;fillColor=#D5E8D4;" vertex="1" parent="1">
          <mxGeometry x="65" y="720" width="230" height="40" as="geometry" />
        </mxCell>
        <mxCell id="N9gOAcbP-C_hygWr5ws--38" value="Receive Tickets (via Mail or Download)" style="ellipse;whiteSpace=wrap;html=1;fillColor=#D5E8D4;" vertex="1" parent="1">
          <mxGeometry x="57.5" y="800" width="245" height="50" as="geometry" />
        </mxCell>
        <mxCell id="N9gOAcbP-C_hygWr5ws--40" value="Apply Discounts (if applicable)" style="ellipse;whiteSpace=wrap;html=1;fillColor=#FFE6CC;" vertex="1" parent="1">
          <mxGeometry x="-110" y="510" width="140" height="70" as="geometry" />
        </mxCell>
        <mxCell id="N9gOAcbP-C_hygWr5ws--42" value="Apply volume based Discounts&amp;nbsp;" style="ellipse;whiteSpace=wrap;html=1;fillColor=#FFE6CC;" vertex="1" parent="1">
          <mxGeometry x="344" y="530" width="140" height="70" as="geometry" />
        </mxCell>
        <mxCell id="N9gOAcbP-C_hygWr5ws--44" value="Release Held seats&amp;nbsp;" style="ellipse;whiteSpace=wrap;html=1;fillColor=#D5E8D4;" vertex="1" parent="1">
          <mxGeometry x="330" y="445" width="140" height="70" as="geometry" />
        </mxCell>
        <mxCell id="N9gOAcbP-C_hygWr5ws--71" value="Customer/Consumer" style="shape=umlActor;verticalLabelPosition=bottom;verticalAlign=top;html=1;" vertex="1" parent="1">
          <mxGeometry x="-170" y="240" width="30" height="60" as="geometry" />
        </mxCell>
        <mxCell id="N9gOAcbP-C_hygWr5ws--72" value="Malaika" style="shape=umlFrame;whiteSpace=wrap;html=1;pointerEvents=0;" vertex="1" parent="1">
          <mxGeometry x="-120" y="150" width="710" height="700" as="geometry" />
        </mxCell>
      </root>
    </mxGraphModel>
  </diagram>
</mxfile>
